<svg width="100" height="100" viewBox="0 0 100 100" fill="none" xmlns="http://www.w3.org/2000/svg">
<path d="M87.4766 61.1855L91.2363 59.1074L87.0801 51.5859L83.3203 53.6641C80.4374 55.2592 77.8831 57.3866 75.793 59.9336L58.5938 50L75.7949 40.0664C77.8851 42.6134 80.4393 44.7408 83.3223 46.3359L87.082 48.4141L91.2383 40.8926L87.4785 38.8145C85.9689 37.9806 84.5913 36.9275 83.3906 35.6895L93.75 29.6973L89.4531 22.2656L79.1016 28.2383C78.6265 26.5784 78.4014 24.8571 78.4336 23.1309L78.5137 18.834L69.9199 18.6738L69.8398 22.9707C69.7791 26.262 70.3418 29.5351 71.498 32.6172L54.2969 42.5566V22.6914C57.547 22.1539 60.6658 21.0054 63.4883 19.3066L67.168 17.0898L62.7324 9.72852L59.0527 11.9453C57.5736 12.8347 55.9709 13.5001 54.2969 13.9199V3.125H45.7031V13.9199C44.0291 13.5001 42.4264 12.8347 40.9473 11.9453L37.2676 9.72852L32.832 17.0898L36.5117 19.3066C39.3342 21.0054 42.453 22.1539 45.7031 22.6914V42.5566L28.502 32.6172C29.6619 29.5331 30.2272 26.2573 30.168 22.9629L30.0879 18.666L21.4941 18.8262L21.5742 23.123C21.6064 24.8492 21.3813 26.5706 20.9062 28.2305L10.5469 22.2656L6.25 29.707L16.6113 35.6914C15.4107 36.9295 14.0331 37.9826 12.5234 38.8164L8.76367 40.8926L12.9199 48.4141L16.6797 46.3359C19.5626 44.7408 22.1169 42.6134 24.207 40.0664L41.4062 50L24.2051 59.9336C22.1149 57.3866 19.5607 55.2592 16.6777 53.6641L12.9199 51.5859L8.76367 59.1074L12.5234 61.1855C14.0331 62.0194 15.4107 63.0725 16.6113 64.3105L6.25 70.3125L10.5469 77.7539L20.9082 71.7715C21.3833 73.4313 21.6084 75.1527 21.5762 76.8789L21.4961 81.1758L30.0898 81.3359L30.1699 77.0391C30.2287 73.7439 29.6628 70.4673 28.502 67.3828L45.7031 57.4434V77.3086C42.453 77.8461 39.3342 78.9946 36.5117 80.6934L32.832 82.9102L37.2676 90.2715L40.9473 88.0547C42.4264 87.1653 44.0291 86.4999 45.7031 86.0801V96.875H54.2969V86.0801C55.9709 86.4999 57.5736 87.1653 59.0527 88.0547L62.7324 90.2715L67.168 82.9102L63.4883 80.6934C60.6658 78.9946 57.547 77.8461 54.2969 77.3086V57.4434L71.498 67.3828C70.3382 70.4669 69.7729 73.7427 69.832 77.0371L69.9121 81.334L78.5059 81.1738L78.4258 76.877C78.3953 75.1478 78.6231 73.4237 79.1016 71.7617L89.4531 77.7441L93.75 70.3125L83.3984 64.3184C84.5956 63.0783 85.9699 62.0226 87.4766 61.1855Z" fill="white"/>
</svg>
